<?xml version="1.0" encoding="utf-8"?>
<!-- Generator: Adobe Illustrator 16.0.0, SVG Export Plug-In . SVG Version: 6.00 Build 0)  -->
<!DOCTYPE svg PUBLIC "-//W3C//DTD SVG 1.1//EN" "http://www.w3.org/Graphics/SVG/1.1/DTD/svg11.dtd">
<svg version="1.1" id="Layer_1" xmlns="http://www.w3.org/2000/svg" xmlns:xlink="http://www.w3.org/1999/xlink" x="0px" y="0px"
	 width="1500px" height="500px" viewBox="0 500 1500 500" enable-background="new 0 500 1500 500" xml:space="preserve">
<g>
	<g id="gamma_waves_2_">
		<g>
			
				<linearGradient id="SVGID_1_" gradientUnits="userSpaceOnUse" x1="-204.251" y1="-101.7544" x2="-61.749" y2="-101.7544" gradientTransform="matrix(4.3103 0 0 4.3103 884.6906 1215.5317)">
				<stop  offset="0" style="stop-color:#9B2272"/>
				<stop  offset="1" style="stop-color:#6BC9CD"/>
			</linearGradient>
			<path fill="url(#SVGID_1_)" d="M225,987.069L225,987.069c-12.931-0.433-16.379-76.294-20.259-201.726
				c-3.017-100.861-6.465-204.74-19.396-215.947c-0.862-0.432-1.293-0.862-2.155-0.862c-6.896,0.862-12.5,77.155-17.672,144.396
				c-9.052,122.414-16.81,209.053-32.328,209.053l0,0c-9.914,0-17.241-31.466-28.017-82.327
				c-10.776-50-22.845-106.466-38.362-106.466l0,0c-13.793,0-24.569,56.466-34.483,106.466
				C23.276,887.93,15.087,929.31,4.311,929.31l0,0v-2.154l0,0c9.052,0,18.103-46.553,26.293-87.932
				c12.5-63.361,22.414-107.759,36.207-107.759l0,0c17.241,0,28.879,54.741,40.086,107.759
				c8.621,39.654,17.241,81.034,26.293,81.034l0,0c15.086-0.432,23.707-115.086,30.604-207.328
				c6.896-92.672,11.207-144.827,19.396-146.12c1.293,0,2.586,0.432,3.448,1.293C200,579.741,203.017,679.31,206.466,785.344
				c3.018,93.534,6.466,199.569,18.104,200l0,0c9.914,0,20.259-76.293,30.604-150c14.655-106.034,29.311-215.948,52.586-215.948l0,0
				c17.241,0.432,23.275,62.5,29.741,150.862c4.312,59.482,9.052,121.12,19.827,121.12l0,0c12.932,0,28.88-83.189,41.38-150
				c13.362-70.689,22.414-113.793,30.172-113.793l0,0c6.035,0.432,7.759,21.982,9.914,63.793
				c2.586,46.983,6.466,111.207,23.276,112.932c8.188,0.862,16.81-13.793,25.431-28.018c9.052-15.519,17.672-29.741,27.586-28.879
				c16.38,1.724,18.966,40.086,21.121,71.552c1.293,18.534,2.586,37.5,6.466,37.931c2.586,0.432,5.172-0.431,7.758-2.155
				c17.674-14.224,21.983-86.638,25.862-144.826c3.019-47.846,4.741-72.846,10.776-74.139c1.293-0.432,2.586,0,3.879,0.861
				c9.914,7.328,12.931,59.483,16.38,109.914c2.586,37.5,5.604,83.621,11.206,83.621v2.155c-7.327,0-9.482-31.035-12.932-85.776
				c-3.018-47.414-6.466-101.293-15.518-108.189c-0.861-0.432-1.293-0.861-2.155-0.432c-4.741,0.862-6.896,37.069-9.052,72.414
				c-3.448,58.621-8.189,131.466-26.293,146.121c-2.586,2.155-5.604,3.017-9.052,2.586c-5.172-0.862-6.465-15.086-8.189-40.086
				c-2.155-30.604-4.741-68.104-19.396-69.828c-8.189-0.862-17.241,13.793-25.432,28.018c-9.052,15.086-17.673,29.741-27.154,28.88
				c-18.535-1.725-21.983-61.639-25-114.655c-1.726-28.879-3.448-61.638-8.19-62.068l0,0c-6.896,0-18.103,59.482-28.447,112.068
				c-16.811,88.794-30.173,151.725-43.534,151.725l0,0c-12.068,0.432-16.38-46.121-21.982-122.414
				c-5.173-69.827-11.207-148.707-28.018-149.138l0,0c-21.553,0-37.5,118.534-50.432,214.224
				C244.828,929.741,236.207,987.069,225,987.069z"/>
		</g>
		<g>
			
				<linearGradient id="SVGID_2_" gradientUnits="userSpaceOnUse" x1="-204.251" y1="-104.5547" x2="-61.6461" y2="-104.5547" gradientTransform="matrix(4.3103 0 0 4.3103 884.6906 1215.5317)">
				<stop  offset="0" style="stop-color:#9B2272"/>
				<stop  offset="1" style="stop-color:#6BC9CD"/>
			</linearGradient>
			<path fill="url(#SVGID_2_)" d="M225.431,971.982C225.431,971.982,225,971.982,225.431,971.982
				c-11.207-0.432-14.655-71.982-18.535-189.225c-3.448-98.707-7.328-210.775-20.689-221.982c-0.862-0.432-1.293-0.861-2.155-0.861
				c-7.759,0.861-13.362,78.448-18.535,146.552C156.465,825,149.138,909.482,133.621,909.482l0,0
				c-10.345,0-18.535-37.5-28.017-80.604C94.828,780.173,82.759,725,67.241,725l0,0c-13.793,0-24.569,59.052-34.482,110.775
				c-11.207,58.189-18.535,93.535-28.448,93.535l0,0v-2.155l0,0c9.052,0,18.103-48.707,26.293-91.812
				c12.5-65.947,22.414-112.5,36.207-112.5l0,0c17.241,0,28.879,53.448,40.086,105.604c8.621,38.793,17.241,78.879,25.862,78.879
				l0,0c15.086-0.431,23.276-111.638,29.741-201.293c6.896-91.379,11.638-147.413,20.259-148.275c1.293,0,2.586,0.432,3.448,1.293
				c13.793,12.069,17.672,119.827,21.552,223.707c3.017,87.5,6.896,187.068,16.81,187.5l0,0c9.914,0,20.259-74.568,30.604-146.552
				c14.224-103.88,29.311-211.207,52.586-211.207l0,0c17.241,0.431,23.275,60.775,30.172,146.552
				c4.741,57.759,9.483,117.672,20.26,117.672l0,0c12.932,0,28.447-80.603,41.38-145.258
				c13.36-68.104,21.981-110.345,30.172-110.345l0,0c7.328,0.431,9.052,24.568,11.638,68.104
				c3.019,47.846,6.896,106.896,23.276,108.62c8.188,0.862,16.379-13.361,24.568-26.724c8.62-14.655,17.241-28.88,26.725-28.019
				c16.379,1.725,19.396,38.794,21.981,68.534c1.293,17.673,3.019,35.776,6.896,36.207c2.155,0.432,4.311-0.431,6.466-1.724
				c15.518-12.5,19.828-79.312,23.707-133.19c3.448-51.293,5.604-80.604,13.362-81.465c1.293,0,2.586,0,3.879,1.293
				c10.345,8.189,13.362,62.068,16.811,114.225c2.155,37.5,5.173,84.052,10.775,84.052v2.155c-6.896,0-9.482-31.034-12.5-85.775
				c-3.017-49.139-6.465-105.173-15.948-112.932c-0.861-0.432-1.724-0.861-2.154-0.861c-6.034,0.861-9.053,40.948-11.639,79.741
				c-3.879,56.896-8.188,121.552-24.138,134.481c-2.586,1.726-5.173,2.586-7.759,2.155c-5.172-0.862-6.467-14.225-8.62-37.932
				c-2.587-28.88-5.173-65.087-20.259-66.811c-8.189-0.862-16.812,13.361-24.569,27.155C483.621,786.638,475.862,800,466.811,800
				c-0.432,0-0.432,0-0.861,0c-18.104-1.725-21.553-59.482-25-110.345c-2.155-31.035-4.312-65.948-9.914-65.948l0,0
				c-6.896,0-18.104,57.759-28.018,108.62c-16.811,85.776-29.741,146.983-43.104,146.983l0,0
				c-11.639-0.433-16.38-45.26-21.983-119.396c-5.604-67.673-11.638-144.396-28.447-144.828l0,0
				c-21.551,0-37.5,115.948-50.432,209.482C244.828,915.518,236.638,971.982,225.431,971.982z"/>
		</g>
		<g>
			
				<linearGradient id="SVGID_3_" gradientUnits="userSpaceOnUse" x1="-204.2505" y1="-107.3047" x2="-61.6461" y2="-107.3047" gradientTransform="matrix(4.3103 0 0 4.3103 884.6906 1215.5317)">
				<stop  offset="0" style="stop-color:#9B2272"/>
				<stop  offset="1" style="stop-color:#6BC9CD"/>
			</linearGradient>
			<path fill="url(#SVGID_3_)" d="M225.431,956.896L225.431,956.896c-9.914,0-12.931-66.812-17.242-175.862
				c-3.879-101.725-8.621-217.241-22.414-229.311c-0.862-0.861-1.293-0.861-2.155-0.861c-8.189,0.431-14.224,79.311-19.396,148.707
				c-8.621,115.517-15.948,196.981-31.465,197.413l0,0c-10.345,0-18.535-36.639-27.586-78.88
				C94.828,770.688,82.759,716.81,67.242,716.81l0,0c-13.793,0-24.569,61.207-34.482,115.518
				C21.553,892.673,14.225,929.31,4.312,929.31l0,0v-2.154l0,0c9.052,0,18.103-50.862,26.293-95.689
				c12.5-68.535,22.414-116.811,36.638-116.811l0,0c17.242,0,28.879,52.154,40.086,103.018
				c8.189,37.931,17.241,77.154,25.862,77.154l0,0c14.655-0.432,22.845-108.62,29.311-195.258
				c6.896-93.104,11.638-150,21.121-150.433c1.293,0,2.586,0.433,3.448,1.293c14.224,12.933,18.966,123.707,22.845,230.604
				c3.017,81.466,6.896,173.707,15.086,173.707l0,0c9.914,0,20.259-72.845,30.604-143.534
				c14.224-101.725,29.311-206.466,52.155-206.466l0,0c17.241,0.431,23.707,59.052,30.604,142.241
				c4.741,56.034,9.913,114.225,20.688,114.225l0,0c12.932,0,28.448-78.019,40.948-140.519
				c13.362-65.947,21.552-106.465,29.741-106.465l0,0c8.188,0.432,10.345,27.586,13.362,71.552
				c3.018,46.12,6.896,103.018,22.845,104.311c8.188,0.862,15.948-12.5,23.707-25.861c8.188-14.225,16.379-27.587,25.862-26.725
				c16.379,1.725,19.826,37.068,22.412,65.518c1.726,16.811,3.448,34.053,7.328,34.482c1.725,0.431,3.448,0,5.172-1.293
				c13.362-10.345,17.674-69.396,21.121-121.552c3.879-54.312,6.467-87.932,15.518-88.794c1.294,0,2.587,0.432,3.88,1.294
				c10.776,9.052,13.793,64.654,16.811,118.533c2.155,37.5,4.741,84.483,10.345,84.483v2.154c-6.896,0-9.052-31.034-12.068-86.206
				c-3.02-50.861-6.037-108.62-15.951-117.241c-0.861-0.861-1.724-0.861-2.586-0.861c-7.759,0.861-10.776,44.827-13.793,87.068
				c-3.88,52.587-7.759,112.069-21.983,123.276c-2.154,1.724-4.31,2.154-6.896,1.724c-5.172-0.861-6.465-13.793-8.62-36.207
				c-2.586-27.586-6.035-62.5-20.689-63.793c-8.189-0.861-16.38,12.932-24.139,25.862c-8.188,14.225-15.948,27.586-25.431,26.725
				c-17.673-1.294-21.553-57.328-24.569-106.466c-2.155-34.052-4.741-69.396-11.638-69.828l0,0
				c-6.896,0-18.104,55.604-27.586,104.742c-16.812,83.189-29.312,141.81-42.673,141.81l0,0
				c-11.639-0.431-16.38-43.965-22.414-115.947c-5.604-65.518-12.068-140.086-28.88-140.518l0,0
				c-21.552,0-37.5,113.793-50.431,204.741C244.828,901.725,236.638,956.896,225.431,956.896z"/>
		</g>
		<g>
			
				<linearGradient id="SVGID_4_" gradientUnits="userSpaceOnUse" x1="-204.2505" y1="-110.1543" x2="-61.6461" y2="-110.1543" gradientTransform="matrix(4.3103 0 0 4.3103 884.6906 1215.5317)">
				<stop  offset="0" style="stop-color:#9B2272"/>
				<stop  offset="1" style="stop-color:#6BC9CD"/>
			</linearGradient>
			<path fill="url(#SVGID_4_)" d="M225.431,941.811L225.431,941.811c-7.759,0-10.776-49.138-15.517-161.207
				c-4.311-100-9.483-224.568-24.138-237.5c-0.862-0.861-1.724-0.861-2.155-0.861c-9.052,0.432-14.655,80.173-20.258,150.861
				c-7.328,98.275-14.225,191.38-30.604,191.812l0,0c-10.345,0-18.535-35.776-27.586-76.725
				c-10.345-47.414-22.414-99.568-37.931-99.568l0,0c-13.793,0-24.569,63.793-34.482,119.827
				c-11.207,62.5-18.535,100.862-28.448,100.862l0,0v-2.155l0,0c9.052,0,18.103-52.586,26.293-99.139
				c10.776-62.5,21.121-121.552,36.638-121.552l0,0c17.242,0,28.448,50.861,39.655,100.432
				c8.189,37.068,16.811,75.431,25.862,75.431l0,0c14.655-0.431,22.414-105.604,28.879-190.086
				c6.897-93.966,12.069-151.724,21.983-152.586c1.293,0,2.586,0.431,3.879,1.293c15.086,13.793,20.259,133.189,24.569,239.225
				c1.724,42.672,3.448,82.759,5.604,112.068c3.017,42.673,6.465,47.414,7.759,47.414l0,0c9.914,0,20.258-71.121,30.603-140.086
				c14.225-99.139,29.311-202.155,52.155-202.155l0,0c17.24,0.431,23.707,57.327,31.034,137.931
				c4.741,54.312,9.913,110.346,20.689,110.776l0,0c12.931,0,28.017-75,40.517-135.346c12.933-63.793,21.553-103.018,29.312-103.018
				l0,0c9.052,0,11.638,28.448,15.087,75c3.447,44.396,7.327,99.568,22.845,100.862c8.189,0.861,15.518-12.069,22.845-24.569
				c7.759-12.931,15.518-26.725,25-25.861c16.38,1.725,20.259,35.345,23.275,62.5c1.725,15.947,3.448,31.896,7.328,32.759
				c1.293,0.431,3.017,0,4.31-0.862c11.64-8.62,15.519-62.931,18.967-110.345c3.879-50.862,6.896-94.827,18.104-96.12
				c1.293,0,3.019,0.431,3.879,1.293c11.207,9.482,14.226,67.241,16.812,122.845c2.154,37.932,4.311,84.914,9.914,84.914v2.154
				c-6.896,0-9.053-31.465-12.069-86.638c-2.586-52.586-6.034-112.5-16.379-121.553c-0.862-0.861-1.726-1.293-2.587-0.861
				c-9.482,0.861-12.932,50.432-16.379,93.966c-3.448,50.432-7.327,102.586-19.827,112.069c-1.726,1.293-3.88,1.724-5.604,1.293
				c-5.173-0.862-6.466-13.362-9.052-34.482c-3.018-26.293-6.466-59.483-21.552-60.776c-0.433,0-0.433,0-0.862,0
				c-8.188,0-15.518,12.5-22.414,25c-7.758,13.362-15.517,26.293-24.567,25.433c-17.241-1.294-21.121-53.019-24.569-102.587
				c-2.586-35.775-5.172-72.846-13.362-73.275l0,0c-6.896,0-17.672,53.879-27.586,101.293
				c-16.379,80.172-28.879,137.069-42.241,137.069l0,0c-11.638-0.433-16.38-42.673-22.845-112.5
				c-5.604-63.794-12.5-135.776-28.88-136.207l0,0c-21.551,0-37.5,111.206-50.431,200.431
				C244.828,887.5,236.638,941.811,225.431,941.811z"/>
		</g>
		<g>
			
				<linearGradient id="SVGID_5_" gradientUnits="userSpaceOnUse" x1="-204.251" y1="-112.6548" x2="-61.7495" y2="-112.6548" gradientTransform="matrix(4.3103 0 0 4.3103 884.6906 1215.5317)">
				<stop  offset="0" style="stop-color:#9B2272"/>
				<stop  offset="1" style="stop-color:#6BC9CD"/>
			</linearGradient>
			<path fill="url(#SVGID_5_)" d="M4.311,929.311L4.311,929.311v-2.154l0,0c9.052,0,18.103-54.741,26.293-103.019
				c10.776-64.655,21.121-125.861,36.638-126.293l0,0c17.242,0,28.448,50,39.655,97.845c8.189,36.207,16.811,73.276,25.431,73.276
				l0,0c14.224-0.432,21.983-102.587,28.448-184.483c7.328-95.258,12.069-153.879,22.845-153.879
				c17.242-0.861,23.707,108.189,30.172,250c3.018,69.396,6.466,141.379,11.638,143.534l0,0c9.914,0,20.258-69.827,30.172-137.067
				c14.224-96.983,29.311-197.414,52.155-197.414l0,0c17.241,0.431,23.707,55.604,31.466,133.619
				c5.173,52.588,10.346,106.896,21.12,107.328l0,0c12.932,0,28.019-72.414,40.086-130.604
				c12.933-61.638,21.121-99.138,29.312-99.138l0,0c10.775,0,13.793,36.206,16.811,78.017c3.448,45.259,7.759,96.552,22.845,97.845
				c8.189,0.862,15.087-11.638,21.982-23.706c6.896-12.068,14.225-24.568,23.276-24.568c0.431,0,0.431,0,0.861,0
				c16.38,1.724,20.689,33.621,24.139,59.481c1.724,15.087,3.879,30.173,7.759,31.035c1.293,0.431,2.155,0,3.017-0.862
				c9.483-7.328,12.933-54.311,16.38-99.568C571.122,656.896,575,616.38,587.5,615.949c1.293,0,3.018,0.431,4.311,1.724
				c11.639,10.346,14.655,72.414,17.241,127.155c1.725,37.932,4.312,85.345,9.482,85.345v2.155c-6.896,0-8.62-31.466-11.638-87.068
				c-2.586-54.311-5.604-115.948-16.38-125.862c-0.861-0.861-1.725-1.293-3.018-1.293c-11.207,0.432-15.086,53.879-18.534,100.862
				c-3.448,47.845-6.896,93.534-17.241,100.861c-1.294,1.294-3.018,1.294-4.741,0.861c-5.173-1.293-6.896-12.5-9.482-32.759
				c-3.448-25-7.327-56.465-21.982-57.759c-8.188-0.861-15.518,11.639-22.414,23.707c-7.326,12.5-14.654,25-23.707,24.568
				c-16.811-1.293-20.688-51.293-24.567-99.568c-3.019-37.5-6.035-75.861-15.087-76.293l0,0c-6.896,0-17.672,51.725-27.155,97.414
				c-16.379,77.154-28.448,131.896-42.241,131.896l0,0c-12.5-0.431-17.24-50.431-22.845-109.052
				c-6.034-61.638-12.5-131.466-29.312-131.896l0,0c-21.551,0-37.5,108.62-50.431,195.688
				c-12.931,85.776-21.121,138.793-32.328,138.793l0,0c-6.035,0-8.621-42.241-13.362-145.259
				c-5.172-103.879-11.638-247.413-28.448-247.413l0,0c-9.483,0.431-15.517,81.034-21.121,152.155
				c-8.621,112.5-15.086,186.207-30.172,186.207l0,0c-10.345,0-18.104-34.914-27.586-75c-10.345-45.259-21.982-96.552-37.5-96.552
				l0,0c-13.793,0-24.569,66.379-34.482,124.567C21.552,889.655,14.224,929.311,4.311,929.311z"/>
		</g>
		<g>
			
				<linearGradient id="SVGID_6_" gradientUnits="userSpaceOnUse" x1="-204.251" y1="-113.7041" x2="-61.6466" y2="-113.7041" gradientTransform="matrix(4.3103 0 0 4.3103 884.6906 1215.5317)">
				<stop  offset="0" style="stop-color:#9B2272"/>
				<stop  offset="1" style="stop-color:#6BC9CD"/>
			</linearGradient>
			<path fill="url(#SVGID_6_)" d="M4.311,929.311L4.311,929.311v-2.154l0,0c9.052,0,18.103-56.896,26.293-106.896
				c10.776-67.241,21.121-130.604,36.638-130.604l0,0c17.242,0,28.448,48.707,39.224,95.259
				c8.19,35.345,16.811,71.552,25.431,71.552l0,0c14.224-0.432,21.552-95.259,27.586-179.311
				c7.328-96.553,12.5-155.174,23.707-155.604l0,0c18.104,0,25,113.362,32.328,262.069c3.018,62.931,6.035,122.845,9.914,125.431
				l0,0c9.914,0,20.258-68.104,30.172-134.052c14.224-94.827,29.311-192.673,52.155-192.673l0,0
				c18.534,0.432,25.432,65.948,31.896,129.311c5.172,50.862,10.774,103.448,21.552,103.88l0,0
				c12.931,0,27.586-69.828,39.655-125.432c12.5-59.052,20.688-95.258,28.879-95.258l0,0c12.068,0,15.086,37.499,18.534,80.603
				c3.448,43.966,7.759,93.535,22.414,94.828c8.188,0.862,14.654-11.207,21.12-22.414c6.896-12.069,13.794-24.569,23.275-23.707
				c16.38,1.726,21.121,31.896,24.569,56.466c2.154,13.793,4.311,28.448,8.188,29.312c0.862,0.431,1.726,0,2.155-0.433
				c7.759-5.604,10.775-47.845,13.793-88.793c3.879-56.033,7.759-108.619,22.845-109.052l0,0c14.226,0,18.104,55.173,21.553,133.19
				c1.725,38.361,3.88,85.774,9.481,85.774v2.155c-6.896,0-8.62-31.896-11.206-87.5c-2.587-58.621-6.034-131.466-19.828-131.466l0,0
				c-13.361,0.432-17.672,57.328-21.12,107.328c-3.018,45.258-6.034,84.052-14.654,90.086c-1.293,0.862-2.587,1.293-3.88,0.862
				c-4.741-1.294-6.896-12.069-9.482-31.035c-3.448-23.707-7.759-53.448-22.845-54.741c-8.189-0.862-15.086,11.207-21.552,22.414
				c-6.896,12.068-13.794,24.138-23.276,23.275c-16.379-1.294-20.258-49.568-24.138-96.553
				c-3.019-38.793-6.466-78.879-16.812-78.879l0,0c-6.896,0-17.672,50-27.154,93.966c-15.948,74.568-28.448,127.155-41.811,127.155
				l0,0c-12.5-0.432-17.673-49.139-23.276-105.604c-6.033-59.483-12.931-127.155-29.74-127.587l0,0
				c-21.552,0-37.5,106.034-50.432,190.947c-12.5,84.053-21.121,135.346-32.328,135.346l0,0c-4.741,0-6.896-33.189-11.638-127.586
				c-5.172-103.448-12.5-259.913-30.172-259.913l0,0c-10.345,0-16.379,81.896-21.983,153.879
				c-8.189,109.481-14.655,181.034-29.741,181.466l0,0c-10.345,0-18.104-33.621-27.155-72.845
				c-9.052-43.967-20.689-93.967-36.207-93.967l0,0c-13.793,0-24.569,68.534-34.482,128.88
				C21.552,888.362,14.224,929.311,4.311,929.311z"/>
		</g>
		<g>
			
				<linearGradient id="SVGID_7_" gradientUnits="userSpaceOnUse" x1="-204.251" y1="-114.7041" x2="-61.6461" y2="-114.7041" gradientTransform="matrix(4.3103 0 0 4.3103 884.6906 1215.5317)">
				<stop  offset="0" style="stop-color:#9B2272"/>
				<stop  offset="1" style="stop-color:#6BC9CD"/>
			</linearGradient>
			<path fill="url(#SVGID_7_)" d="M4.311,929.311L4.311,929.311v-2.154l0,0c9.052,0,18.534-58.621,26.293-110.346
				c10.776-69.396,21.121-135.345,36.638-135.345l0,0c17.242,0,28.448,47.413,39.224,93.104
				c8.19,34.052,16.379,69.396,25.431,69.396l0,0c13.793-0.432,21.121-92.673,27.155-174.569
				c7.328-97.413,12.931-156.466,24.569-156.466l0,0c18.965,0,27.155,125,34.483,276.293c2.586,51.726,5.172,100.433,7.759,104.742
				c9.914-1.294,20.258-66.811,30.172-130.604c14.224-92.241,28.879-187.933,52.155-187.933l0,0
				c18.534,0.433,25.432,63.794,31.896,125c5.173,49.14,10.776,100,21.552,100l0,0c12.933,0,27.587-66.81,39.226-120.688
				c12.931-56.896,21.12-91.812,29.311-91.812c13.361,0,16.811,38.362,20.689,83.19c3.879,42.672,7.759,90.517,22.413,91.81
				c8.189,0.862,14.225-10.345,20.689-21.12c6.465-11.639,13.361-23.275,22.845-22.413c16.38,1.725,21.553,30.604,25.432,53.447
				c2.154,13.793,4.741,26.726,8.188,27.586c0.433,0,0.862,0,1.726-0.431c6.466-4.312,8.62-40.086,11.207-78.019
				c3.879-56.896,7.759-115.517,25.431-115.517c16.379,0,19.396,69.827,21.981,137.931c1.726,38.362,3.449,86.207,9.054,86.207
				v2.155c-6.896,0-8.621-31.896-10.776-87.932c-2.586-60.345-5.604-135.775-20.259-135.775c-15.517,0-19.827,62.932-23.275,113.793
				c-2.587,40.086-5.173,74.569-12.068,79.312c-0.862,0.861-2.155,0.861-3.018,0.431c-5.173-1.293-6.896-13.793-9.482-29.311
				c-3.879-22.413-8.62-50.432-23.707-52.154c-8.189-0.862-14.655,10.345-20.689,21.551c-6.466,11.207-12.931,23.276-22.414,22.414
				c-15.948-1.293-19.827-46.12-24.138-93.534c-3.448-40.086-6.896-81.466-18.534-81.466c-6.896,0-17.241,47.845-26.725,90.087
				c-15.518,71.552-28.018,122.413-41.379,122.413l0,0c-12.5-0.431-17.673-47.413-23.707-101.724
				c-6.466-57.759-13.362-122.846-30.173-123.276l0,0c-21.551,0-37.5,103.448-50.432,186.64
				c-12.5,81.896-21.121,132.326-32.328,132.326c-3.448,0-4.741-15.947-9.482-106.896c-6.035-103.019-15.086-275-33.621-275l0,0
				c-10.776,0-17.241,82.327-22.414,154.741c-8.19,106.466-14.655,176.293-29.311,176.293l0,0c-10.345,0-18.104-32.76-27.155-71.12
				c-10.345-42.673-21.552-91.38-37.5-91.38l0,0c-13.793,0-24.569,71.121-34.482,133.621
				C21.552,886.638,14.224,929.311,4.311,929.311z"/>
		</g>
	</g>
	<g id="techNL_expanded_3_">
		<path fill="#FFFFFF" d="M659.482,681.034h22.414v-46.552h9.052v46.552h33.621v7.759h-33.621v118.966
			c0,12.068,5.173,17.672,18.534,17.672c4.741,0,9.914-0.86,13.793-2.154h0.432v7.759c-4.311,1.293-10.345,2.154-15.948,2.154
			c-17.673,0-26.293-7.759-26.293-24.567V688.793h-21.982L659.482,681.034L659.482,681.034z"/>
		<path fill="#FFFFFF" d="M759.914,756.034c0.431,40.948,21.12,70.689,61.207,70.689c28.017,0,45.689-14.654,53.017-39.225h9.052
			c-6.033,26.293-26.724,46.982-62.067,46.982c-45.69,0-69.828-33.62-69.828-79.311c0-43.535,25.862-76.725,68.535-76.725
			c15.947,0,29.31,4.741,39.653,13.361c16.812,13.794,24.569,36.207,25.433,64.225H759.914V756.034z M819.828,686.207
			c-33.621,0-57.328,24.568-59.483,62.5h115.086C872.845,708.621,851.293,686.207,819.828,686.207z"/>
		<path fill="#FFFFFF" d="M1046.982,781.034c-3.879,31.035-25.432,53.448-63.793,53.448c-43.965,0-68.965-34.913-68.965-78.448
			c0-43.534,25-77.586,68.965-77.586c33.621,0,56.896,17.241,62.5,46.981h-9.053c-6.466-27.586-27.586-39.224-53.447-39.224
			c-36.207,0-59.914,28.018-59.914,69.827c0,41.811,23.707,70.259,59.914,70.259c31.466,0,51.293-17.672,55.173-45.689h8.62V781.034
			z"/>
		<path fill="#FFFFFF" d="M1093.104,708.189h0.432c9.052-15.086,26.294-29.312,55.173-29.312c30.604,0,48.275,18.535,48.275,45.259
			v107.76h-9.053V725c0-25.431-15.517-37.931-40.517-37.931c-31.035,0-54.311,21.12-54.311,43.965v100.862h-9.053V623.707h9.053
			V708.189L1093.104,708.189z"/>
		<path fill="#FFFFFF" d="M1237.931,675.431h16.38l73.275,109.483c8.189,11.638,15.948,25.861,15.948,25.861h0.432V675.431h14.225
			v156.035h-15.519l-73.274-108.189c-7.328-10.775-16.812-26.293-16.812-26.293h-0.431v134.914h-14.226L1237.931,675.431
			L1237.931,675.431z"/>
		<path fill="#FFFFFF" d="M1395.689,675.431h15.086v142.673h84.914v13.362h-100V675.431z"/>
	</g>
</g>
</svg>
