<?xml version="1.0" encoding="utf-8"?>
<!-- Generator: Adobe Illustrator 24.3.0, SVG Export Plug-In . SVG Version: 6.00 Build 0)  -->
<svg version="1.1" id="Layer_1" xmlns="http://www.w3.org/2000/svg" xmlns:xlink="http://www.w3.org/1999/xlink" x="0px" y="0px"
	 viewBox="0 0 348 113" style="enable-background:new 0 0 348 113;" xml:space="preserve">
<style type="text/css">
	.st0{fill:url(#SVGID_1_);}
	.st1{fill:url(#SVGID_2_);}
	.st2{fill:url(#SVGID_3_);}
	.st3{fill:url(#SVGID_4_);}
	.st4{fill:url(#SVGID_5_);}
	.st5{fill:url(#SVGID_6_);}
	.st6{fill:url(#SVGID_7_);}
	.st7{fill:#202126;}
</style>
<g>
	<g id="gamma_waves_2_">
		<g>
			<linearGradient id="SVGID_1_" gradientUnits="userSpaceOnUse" x1="1" y1="62.779" x2="143.6044" y2="62.779">
				<stop  offset="0" style="stop-color:#9B2272"/>
				<stop  offset="1" style="stop-color:#6BC9CD"/>
			</linearGradient>
			<path class="st0" d="M52.2,111.5C52.2,111.5,52.2,111.5,52.2,111.5c-3-0.1-3.8-17.7-4.7-46.8c-0.7-23.4-1.5-47.5-4.5-50.1
				c-0.2-0.1-0.3-0.2-0.5-0.2c-1.6,0.2-2.9,17.9-4.1,33.5c-2.1,28.4-3.9,48.5-7.5,48.5c0,0,0,0,0,0c-2.3,0-4-7.3-6.5-19.1
				c-2.5-11.6-5.3-24.7-8.9-24.7c0,0,0,0,0,0c-3.2,0-5.7,13.1-8,24.7C5.4,88.5,3.5,98.1,1,98.1c0,0,0,0,0,0l0-0.5c0,0,0,0,0,0
				c2.1,0,4.2-10.8,6.1-20.4c2.9-14.7,5.2-25,8.4-25c0,0,0,0,0,0c4,0,6.7,12.7,9.3,25c2,9.2,4,18.8,6.1,18.8c0,0,0,0,0,0
				c3.5-0.1,5.5-26.7,7.1-48.1c1.6-21.5,2.6-33.6,4.5-33.9c0.3,0,0.6,0.1,0.8,0.3c3.1,2.7,3.8,25.8,4.6,50.4
				c0.7,21.7,1.5,46.3,4.2,46.4c0,0,0,0,0,0c2.3,0,4.7-17.7,7.1-34.8c3.4-24.6,6.8-50.1,12.2-50.1c0,0,0,0,0,0
				c4,0.1,5.4,14.5,6.9,35c1,13.8,2.1,28.1,4.6,28.1c0,0,0,0,0,0c3,0,6.7-19.3,9.6-34.8c3.1-16.4,5.2-26.4,7-26.4c0,0,0,0,0,0
				c1.4,0.1,1.8,5.1,2.3,14.8c0.6,10.9,1.5,25.8,5.4,26.2c1.9,0.2,3.9-3.2,5.9-6.5c2.1-3.6,4.1-6.9,6.4-6.7
				c3.8,0.4,4.4,9.3,4.9,16.6c0.3,4.3,0.6,8.7,1.5,8.8c0.6,0.1,1.2-0.1,1.8-0.5c4.1-3.3,5.1-20.1,6-33.6c0.7-11.1,1.1-16.9,2.5-17.2
				c0.3-0.1,0.6,0,0.9,0.2c2.3,1.7,3,13.8,3.8,25.5c0.6,8.7,1.3,19.4,2.6,19.4v0.5c-1.7,0-2.2-7.2-3-19.9c-0.7-11-1.5-23.5-3.6-25.1
				c-0.2-0.1-0.3-0.2-0.5-0.1c-1.1,0.2-1.6,8.6-2.1,16.8c-0.8,13.6-1.9,30.5-6.1,33.9c-0.6,0.5-1.3,0.7-2.1,0.6
				c-1.2-0.2-1.5-3.5-1.9-9.3c-0.5-7.1-1.1-15.8-4.5-16.2c-1.9-0.2-4,3.2-5.9,6.5c-2.1,3.5-4.1,6.9-6.3,6.7
				c-4.3-0.4-5.1-14.3-5.8-26.6c-0.4-6.7-0.8-14.3-1.9-14.4c0,0,0,0,0,0c-1.6,0-4.2,13.8-6.6,26c-3.9,20.6-7,35.2-10.1,35.2
				c0,0,0,0,0,0C80.3,89.8,79.3,79,78,61.3c-1.2-16.2-2.6-34.5-6.5-34.6c0,0,0,0,0,0c-5,0-8.7,27.5-11.7,49.7
				C56.8,98.2,54.8,111.5,52.2,111.5z"/>
		</g>
		<g>
			<linearGradient id="SVGID_2_" gradientUnits="userSpaceOnUse" x1="1" y1="59.9684" x2="143.6044" y2="59.9684">
				<stop  offset="0" style="stop-color:#9B2272"/>
				<stop  offset="1" style="stop-color:#6BC9CD"/>
			</linearGradient>
			<path class="st1" d="M52.3,108C52.3,108,52.2,108,52.3,108c-2.6-0.1-3.4-16.7-4.3-43.9c-0.8-22.9-1.7-48.9-4.8-51.5
				c-0.2-0.1-0.3-0.2-0.5-0.2c-1.8,0.2-3.1,18.2-4.3,34c-2.1,27.5-3.8,47.1-7.4,47.1c0,0,0,0,0,0c-2.4,0-4.3-8.7-6.5-18.7
				c-2.5-11.3-5.3-24.1-8.9-24.1c0,0,0,0,0,0c-3.2,0-5.7,13.7-8,25.7C5,89.9,3.3,98.1,1,98.1c0,0,0,0,0,0l0-0.5c0,0,0,0,0,0
				c2.1,0,4.2-11.3,6.1-21.3c2.9-15.3,5.2-26.1,8.4-26.1c0,0,0,0,0,0c4,0,6.7,12.4,9.3,24.5c2,9,4,18.3,6,18.3c0,0,0,0,0,0
				c3.5-0.1,5.4-25.9,6.9-46.7c1.6-21.2,2.7-34.2,4.7-34.4c0.3,0,0.6,0.1,0.8,0.3c3.2,2.8,4.1,27.8,5,51.9
				c0.7,20.3,1.6,43.4,3.9,43.5c0,0,0,0,0,0c2.3,0,4.7-17.3,7.1-34c3.3-24.1,6.8-49,12.2-49c0,0,0,0,0,0c4,0.1,5.4,14.1,7,34
				c1.1,13.4,2.2,27.3,4.7,27.3c0,0,0,0,0,0c3,0,6.6-18.7,9.6-33.7c3.1-15.8,5.1-25.6,7-25.6c0,0,0,0,0,0c1.7,0.1,2.1,5.7,2.7,15.8
				c0.7,11.1,1.6,24.8,5.4,25.2c1.9,0.2,3.8-3.1,5.7-6.2c2-3.4,4-6.7,6.2-6.5c3.8,0.4,4.5,9,5.1,15.9c0.3,4.1,0.7,8.3,1.6,8.4
				c0.5,0.1,1-0.1,1.5-0.4c3.6-2.9,4.6-18.4,5.5-30.9c0.8-11.9,1.3-18.7,3.1-18.9c0.3,0,0.6,0,0.9,0.3c2.4,1.9,3.1,14.4,3.9,26.5
				c0.5,8.7,1.2,19.5,2.5,19.5v0.5c-1.6,0-2.2-7.2-2.9-19.9c-0.7-11.4-1.5-24.4-3.7-26.2c-0.2-0.1-0.4-0.2-0.5-0.2
				c-1.4,0.2-2.1,9.5-2.7,18.5c-0.9,13.2-1.9,28.2-5.6,31.2c-0.6,0.4-1.2,0.6-1.8,0.5c-1.2-0.2-1.5-3.3-2-8.8
				c-0.6-6.7-1.2-15.1-4.7-15.5c-1.9-0.2-3.9,3.1-5.7,6.3c-2,3.3-3.8,6.4-5.9,6.4c-0.1,0-0.1,0-0.2,0c-4.2-0.4-5-13.8-5.8-25.6
				c-0.5-7.2-1-15.3-2.3-15.3c0,0,0,0,0,0c-1.6,0-4.2,13.4-6.5,25.2c-3.9,19.9-6.9,34.1-10,34.1c0,0,0,0,0,0
				c-2.7-0.1-3.8-10.5-5.1-27.7c-1.3-15.7-2.7-33.5-6.6-33.6c0,0,0,0,0,0c-5,0-8.7,26.9-11.7,48.6C56.8,94.9,54.9,108,52.3,108z"/>
		</g>
		<g>
			<linearGradient id="SVGID_3_" gradientUnits="userSpaceOnUse" x1="1" y1="57.1579" x2="143.6044" y2="57.1579">
				<stop  offset="0" style="stop-color:#9B2272"/>
				<stop  offset="1" style="stop-color:#6BC9CD"/>
			</linearGradient>
			<path class="st2" d="M52.3,104.5C52.3,104.5,52.3,104.5,52.3,104.5c-2.3,0-3-15.5-4-40.8c-0.9-23.6-2-50.4-5.2-53.2
				c-0.2-0.2-0.3-0.2-0.5-0.2c-1.9,0.1-3.3,18.4-4.5,34.5c-2,26.8-3.7,45.7-7.3,45.8c0,0,0,0,0,0c-2.4,0-4.3-8.5-6.4-18.3
				c-2.4-11-5.2-23.5-8.8-23.5c0,0,0,0,0,0c-3.2,0-5.7,14.2-8,26.8C5,89.6,3.3,98.1,1,98.1c0,0,0,0,0,0l0-0.5c0,0,0,0,0,0
				c2.1,0,4.2-11.8,6.1-22.2c2.9-15.9,5.2-27.1,8.5-27.1c0,0,0,0,0,0c4,0,6.7,12.1,9.3,23.9c1.9,8.8,4,17.9,6,17.9c0,0,0,0,0,0
				c3.4-0.1,5.3-25.2,6.8-45.3c1.6-21.6,2.7-34.8,4.9-34.9c0.3,0,0.6,0.1,0.8,0.3c3.3,3,4.4,28.7,5.3,53.5
				c0.7,18.9,1.6,40.3,3.5,40.3c0,0,0,0,0,0c2.3,0,4.7-16.9,7.1-33.3c3.3-23.6,6.8-47.9,12.1-47.9c0,0,0,0,0,0
				c4,0.1,5.5,13.7,7.1,33c1.1,13,2.3,26.5,4.8,26.5c0,0,0,0,0,0c3,0,6.6-18.1,9.5-32.6c3.1-15.3,5-24.7,6.9-24.7c0,0,0,0,0,0
				c1.9,0.1,2.4,6.4,3.1,16.6c0.7,10.7,1.6,23.9,5.3,24.2c1.9,0.2,3.7-2.9,5.5-6c1.9-3.3,3.8-6.4,6-6.2c3.8,0.4,4.6,8.6,5.2,15.2
				c0.4,3.9,0.8,7.9,1.7,8c0.4,0.1,0.8,0,1.2-0.3c3.1-2.4,4.1-16.1,4.9-28.2c0.9-12.6,1.5-20.4,3.6-20.6c0.3,0,0.6,0.1,0.9,0.3
				c2.5,2.1,3.2,15,3.9,27.5c0.5,8.7,1.1,19.6,2.4,19.6v0.5c-1.6,0-2.1-7.2-2.8-20c-0.7-11.8-1.4-25.2-3.7-27.2
				c-0.2-0.2-0.4-0.2-0.6-0.2c-1.8,0.2-2.5,10.4-3.2,20.2c-0.9,12.2-1.8,26-5.1,28.6c-0.5,0.4-1,0.5-1.6,0.4c-1.2-0.2-1.5-3.2-2-8.4
				c-0.6-6.4-1.4-14.5-4.8-14.8c-1.9-0.2-3.8,3-5.6,6c-1.9,3.3-3.7,6.4-5.9,6.2c-4.1-0.3-5-13.3-5.7-24.7
				c-0.5-7.9-1.1-16.1-2.7-16.2c0,0,0,0,0,0c-1.6,0-4.2,12.9-6.4,24.3c-3.9,19.3-6.8,32.9-9.9,32.9c0,0,0,0,0,0
				c-2.7-0.1-3.8-10.2-5.2-26.9c-1.3-15.2-2.8-32.5-6.7-32.6c0,0,0,0,0,0c-5,0-8.7,26.4-11.7,47.5C56.8,91.7,54.9,104.5,52.3,104.5z
				"/>
		</g>
		<g>
			<linearGradient id="SVGID_4_" gradientUnits="userSpaceOnUse" x1="1" y1="54.3472" x2="143.6044" y2="54.3472">
				<stop  offset="0" style="stop-color:#9B2272"/>
				<stop  offset="1" style="stop-color:#6BC9CD"/>
			</linearGradient>
			<path class="st3" d="M52.3,101C52.3,101,52.3,101,52.3,101c-1.8,0-2.5-11.4-3.6-37.4c-1-23.2-2.2-52.1-5.6-55.1
				c-0.2-0.2-0.4-0.2-0.5-0.2c-2.1,0.1-3.4,18.6-4.7,35c-1.7,22.8-3.3,44.4-7.1,44.5c0,0,0,0,0,0c-2.4,0-4.3-8.3-6.4-17.8
				C22,59,19.2,46.9,15.6,46.9c0,0,0,0,0,0c-3.2,0-5.7,14.8-8,27.8C5,89.2,3.3,98.1,1,98.1c0,0,0,0,0,0l0-0.5c0,0,0,0,0,0
				c2.1,0,4.2-12.2,6.1-23c2.5-14.5,4.9-28.2,8.5-28.2c0,0,0,0,0,0c4,0,6.6,11.8,9.2,23.3c1.9,8.6,3.9,17.5,6,17.5c0,0,0,0,0,0
				c3.4-0.1,5.2-24.5,6.7-44.1c1.6-21.8,2.8-35.2,5.1-35.4c0.3,0,0.6,0.1,0.9,0.3c3.5,3.2,4.7,30.9,5.7,55.5
				c0.4,9.9,0.8,19.2,1.3,26c0.7,9.9,1.5,11,1.8,11c0,0,0,0,0,0c2.3,0,4.7-16.5,7.1-32.5c3.3-23,6.8-46.9,12.1-46.9c0,0,0,0,0,0
				c4,0.1,5.5,13.3,7.2,32c1.1,12.6,2.3,25.6,4.8,25.7c0,0,0,0,0,0c3,0,6.5-17.4,9.4-31.4c3-14.8,5-23.9,6.8-23.9c0,0,0,0,0,0
				c2.1,0,2.7,6.6,3.5,17.4c0.8,10.3,1.7,23.1,5.3,23.4c1.9,0.2,3.6-2.8,5.3-5.7c1.8-3,3.6-6.2,5.8-6c3.8,0.4,4.7,8.2,5.4,14.5
				c0.4,3.7,0.8,7.4,1.7,7.6c0.3,0.1,0.7,0,1-0.2c2.7-2,3.6-14.6,4.4-25.6c0.9-11.8,1.6-22,4.2-22.3c0.3,0,0.7,0.1,0.9,0.3
				c2.6,2.2,3.3,15.6,3.9,28.5c0.5,8.8,1,19.7,2.3,19.7v0.5c-1.6,0-2.1-7.3-2.8-20.1c-0.6-12.2-1.4-26.1-3.8-28.2
				c-0.2-0.2-0.4-0.3-0.6-0.2c-2.2,0.2-3,11.7-3.8,21.8c-0.8,11.7-1.7,23.8-4.6,26c-0.4,0.3-0.9,0.4-1.3,0.3c-1.2-0.2-1.5-3.1-2.1-8
				c-0.7-6.1-1.5-13.8-5-14.1c-0.1,0-0.1,0-0.2,0c-1.9,0-3.6,2.9-5.2,5.8c-1.8,3.1-3.6,6.1-5.7,5.9c-4-0.3-4.9-12.3-5.7-23.8
				c-0.6-8.3-1.2-16.9-3.1-17c0,0,0,0,0,0c-1.6,0-4.1,12.5-6.4,23.5c-3.8,18.6-6.7,31.8-9.8,31.8c0,0,0,0,0,0
				c-2.7-0.1-3.8-9.9-5.3-26.1c-1.3-14.8-2.9-31.5-6.7-31.6c0,0,0,0,0,0c-5,0-8.7,25.8-11.7,46.5C56.8,88.4,54.9,101,52.3,101z"/>
		</g>
		<g>
			<linearGradient id="SVGID_5_" gradientUnits="userSpaceOnUse" x1="1" y1="51.8668" x2="143.6044" y2="51.8668">
				<stop  offset="0" style="stop-color:#9B2272"/>
				<stop  offset="1" style="stop-color:#6BC9CD"/>
			</linearGradient>
			<path class="st4" d="M1,98.1C1,98.1,1,98.1,1,98.1l0-0.5c0,0,0,0,0,0c2.1,0,4.2-12.7,6.1-23.9c2.5-15,4.9-29.2,8.5-29.3
				c0,0,0,0,0,0c4,0,6.6,11.6,9.2,22.7c1.9,8.4,3.9,17,5.9,17c0,0,0,0,0,0c3.3-0.1,5.1-23.8,6.6-42.8c1.7-22.1,2.8-35.7,5.3-35.7
				c4-0.2,5.5,25.1,7,58c0.7,16.1,1.5,32.8,2.7,33.3c0,0,0,0,0,0c2.3,0,4.7-16.2,7-31.8c3.3-22.5,6.8-45.8,12.1-45.8c0,0,0,0,0,0
				c4,0.1,5.5,12.9,7.3,31c1.2,12.2,2.4,24.8,4.9,24.9c0,0,0,0,0,0c3,0,6.5-16.8,9.3-30.3c3-14.3,4.9-23,6.8-23c0,0,0,0,0,0
				c2.5,0,3.2,8.4,3.9,18.1c0.8,10.5,1.8,22.4,5.3,22.7c1.9,0.2,3.5-2.7,5.1-5.5c1.6-2.8,3.3-5.7,5.4-5.7c0.1,0,0.1,0,0.2,0
				c3.8,0.4,4.8,7.8,5.6,13.8c0.4,3.5,0.9,7,1.8,7.2c0.3,0.1,0.5,0,0.7-0.2c2.2-1.7,3-12.6,3.8-23.1c1-14.3,1.9-23.7,4.8-23.8
				c0.3,0,0.7,0.1,1,0.4c2.7,2.4,3.4,16.8,4,29.5c0.4,8.8,1,19.8,2.2,19.8v0.5c-1.6,0-2-7.3-2.7-20.2c-0.6-12.6-1.3-26.9-3.8-29.2
				c-0.2-0.2-0.4-0.3-0.7-0.3c-2.6,0.1-3.5,12.5-4.3,23.4c-0.8,11.1-1.6,21.7-4,23.4c-0.3,0.3-0.7,0.3-1.1,0.2
				c-1.2-0.3-1.6-2.9-2.2-7.6c-0.8-5.8-1.7-13.1-5.1-13.4c-1.9-0.2-3.6,2.7-5.2,5.5c-1.7,2.9-3.4,5.8-5.5,5.7
				c-3.9-0.3-4.8-11.9-5.7-23.1c-0.7-8.7-1.4-17.6-3.5-17.7c0,0,0,0,0,0c-1.6,0-4.1,12-6.3,22.6c-3.8,17.9-6.6,30.6-9.8,30.6
				c0,0,0,0,0,0c-2.9-0.1-4-11.7-5.3-25.3c-1.4-14.3-2.9-30.5-6.8-30.6c0,0,0,0,0,0c-5,0-8.7,25.2-11.7,45.4
				c-3,19.9-4.9,32.2-7.5,32.2c0,0,0,0,0,0c-1.4,0-2-9.8-3.1-33.7C48,39.4,46.5,6.1,42.6,6.1c0,0,0,0,0,0
				c-2.2,0.1-3.6,18.8-4.9,35.3c-2,26.1-3.5,43.2-7,43.2c0,0,0,0,0,0c-2.4,0-4.2-8.1-6.4-17.4c-2.4-10.5-5.1-22.4-8.7-22.4
				c0,0,0,0,0,0c-3.2,0-5.7,15.4-8,28.9C5,88.9,3.3,98.1,1,98.1z"/>
		</g>
		<g>
			<linearGradient id="SVGID_6_" gradientUnits="userSpaceOnUse" x1="1" y1="50.82" x2="143.6044" y2="50.82">
				<stop  offset="0" style="stop-color:#9B2272"/>
				<stop  offset="1" style="stop-color:#6BC9CD"/>
			</linearGradient>
			<path class="st5" d="M1,98.1C1,98.1,1,98.1,1,98.1l0-0.5c0,0,0,0,0,0c2.1,0,4.2-13.2,6.1-24.8c2.5-15.6,4.9-30.3,8.5-30.3
				c0,0,0,0,0,0c4,0,6.6,11.3,9.1,22.1c1.9,8.2,3.9,16.6,5.9,16.6c0,0,0,0,0,0c3.3-0.1,5-22.1,6.4-41.6c1.7-22.4,2.9-36,5.5-36.1
				c0,0,0,0,0,0c4.2,0,5.8,26.3,7.5,60.8c0.7,14.6,1.4,28.5,2.3,29.1h0c2.3,0,4.7-15.8,7-31.1c3.3-22,6.8-44.7,12.1-44.7
				c0,0,0,0,0,0c4.3,0.1,5.9,15.3,7.4,30c1.2,11.8,2.5,24,5,24.1c0,0,0,0,0,0c3,0,6.4-16.2,9.2-29.1c2.9-13.7,4.8-22.1,6.7-22.1
				c0,0,0,0,0,0c2.8,0,3.5,8.7,4.3,18.7c0.8,10.2,1.8,21.7,5.2,22c1.9,0.2,3.4-2.6,4.9-5.2c1.6-2.8,3.2-5.7,5.4-5.5
				c3.8,0.4,4.9,7.4,5.7,13.1c0.5,3.2,1,6.6,1.9,6.8c0.2,0.1,0.4,0,0.5-0.1c1.8-1.3,2.5-11.1,3.2-20.6c0.9-13,1.8-25.2,5.3-25.3
				c0,0,0,0,0,0c3.3,0,4.2,12.8,5,30.9c0.4,8.9,0.9,19.9,2.2,19.9v0.5c-1.6,0-2-7.4-2.6-20.3c-0.6-13.6-1.4-30.5-4.6-30.5
				c0,0,0,0,0,0c-3.1,0.1-4.1,13.3-4.9,24.9c-0.7,10.5-1.4,19.5-3.4,20.9c-0.3,0.2-0.6,0.3-0.9,0.2c-1.1-0.3-1.6-2.8-2.2-7.2
				c-0.8-5.5-1.8-12.4-5.3-12.7c-1.9-0.2-3.5,2.6-5,5.2c-1.6,2.8-3.2,5.6-5.4,5.4c-3.8-0.3-4.7-11.5-5.6-22.4
				c-0.7-9-1.5-18.3-3.9-18.3c0,0,0,0,0,0c-1.6,0-4.1,11.6-6.3,21.8c-3.7,17.3-6.6,29.5-9.7,29.5c0,0,0,0,0,0
				c-2.9-0.1-4.1-11.4-5.4-24.5c-1.4-13.8-3-29.5-6.9-29.6c0,0,0,0,0,0c-5,0-8.7,24.6-11.7,44.3c-2.9,19.5-4.9,31.4-7.5,31.4
				c0,0,0,0,0,0c-1.1,0-1.6-7.7-2.7-29.6c-1.2-24-2.9-60.3-7-60.3c0,0,0,0,0,0c-2.4,0-3.8,19-5.1,35.7c-1.9,25.4-3.4,42-6.9,42.1
				c0,0,0,0,0,0c-2.4,0-4.2-7.8-6.3-16.9C21.9,54.6,19.2,43,15.6,43c0,0,0,0,0,0c-3.2,0-5.7,15.9-8,29.9C5,88.6,3.3,98.1,1,98.1z"/>
		</g>
		<g>
			<linearGradient id="SVGID_7_" gradientUnits="userSpaceOnUse" x1="1" y1="49.7731" x2="143.6044" y2="49.7731">
				<stop  offset="0" style="stop-color:#9B2272"/>
				<stop  offset="1" style="stop-color:#6BC9CD"/>
			</linearGradient>
			<path class="st6" d="M1,98.1C1,98.1,1,98.1,1,98.1l0-0.5c0,0,0,0,0,0C3.1,97.6,5.3,84,7.1,72c2.5-16.1,4.9-31.4,8.5-31.4
				c0,0,0,0,0,0c4,0,6.6,11,9.1,21.6c1.9,7.9,3.8,16.1,5.9,16.1c0,0,0,0,0,0c3.2-0.1,4.9-21.5,6.3-40.5c1.7-22.6,3-36.3,5.7-36.3
				c0,0,0,0,0,0c4.4,0,6.3,29,8,64.1c0.6,12,1.2,23.3,1.8,24.3c2.3-0.3,4.7-15.5,7-30.3C62.7,38.2,66.1,16,71.5,16c0,0,0,0,0,0
				c4.3,0.1,5.9,14.8,7.4,29c1.2,11.4,2.5,23.2,5,23.2c0,0,0,0,0,0c3,0,6.4-15.5,9.1-28C96,27,97.9,18.9,99.8,18.9
				c3.1,0,3.9,8.9,4.8,19.3c0.9,9.9,1.8,21,5.2,21.3c1.9,0.2,3.3-2.4,4.8-4.9c1.5-2.7,3.1-5.4,5.3-5.2c3.8,0.4,5,7.1,5.9,12.4
				c0.5,3.2,1.1,6.2,1.9,6.4c0.1,0,0.2,0,0.4-0.1c1.5-1,2-9.3,2.6-18.1c0.9-13.2,1.8-26.8,5.9-26.8c3.8,0,4.5,16.2,5.1,32
				c0.4,8.9,0.8,20,2.1,20v0.5c-1.6,0-2-7.4-2.5-20.4c-0.6-14-1.3-31.5-4.7-31.5c-3.6,0-4.6,14.6-5.4,26.4
				c-0.6,9.3-1.2,17.3-2.8,18.4c-0.2,0.2-0.5,0.2-0.7,0.1c-1.2-0.3-1.6-3.2-2.2-6.8c-0.9-5.2-2-11.7-5.5-12.1
				c-1.9-0.2-3.4,2.4-4.8,5c-1.5,2.6-3,5.4-5.2,5.2c-3.7-0.3-4.6-10.7-5.6-21.7c-0.8-9.3-1.6-18.9-4.3-18.9c-1.6,0-4,11.1-6.2,20.9
				c-3.6,16.6-6.5,28.4-9.6,28.4c0,0,0,0,0,0c-2.9-0.1-4.1-11-5.5-23.6c-1.5-13.4-3.1-28.5-7-28.6c0,0,0,0,0,0
				c-5,0-8.7,24-11.7,43.3c-2.9,19-4.9,30.7-7.5,30.7c-0.8,0-1.1-3.7-2.2-24.8C49,41.8,46.9,1.9,42.6,1.9c0,0,0,0,0,0
				c-2.5,0-4,19.1-5.2,35.9c-1.9,24.7-3.4,40.9-6.8,40.9c0,0,0,0,0,0c-2.4,0-4.2-7.6-6.3-16.5c-2.4-9.9-5-21.2-8.7-21.2c0,0,0,0,0,0
				c-3.2,0-5.7,16.5-8,31C5,88.2,3.3,98.1,1,98.1z"/>
		</g>
	</g>
	<g id="techNL_expanded_3_">
		<path class="st7" d="M153,40.5h5.2V29.7h2.1v10.8h7.8v1.8h-7.8v27.6c0,2.8,1.2,4.1,4.3,4.1c1.1,0,2.3-0.2,3.2-0.5h0.1v1.8
			c-1,0.3-2.4,0.5-3.7,0.5c-4.1,0-6.1-1.8-6.1-5.7V42.3H153V40.5z"/>
		<path class="st7" d="M176.3,57.9c0.1,9.5,4.9,16.4,14.2,16.4c6.5,0,10.6-3.4,12.3-9.1h2.1c-1.4,6.1-6.2,10.9-14.4,10.9
			c-10.6,0-16.2-7.8-16.2-18.4c0-10.1,6-17.8,15.9-17.8c3.7,0,6.8,1.1,9.2,3.1c3.9,3.2,5.7,8.4,5.9,14.9H176.3z M190.2,41.7
			c-7.8,0-13.3,5.7-13.8,14.5h26.7C202.5,46.9,197.5,41.7,190.2,41.7z"/>
		<path class="st7" d="M242.9,63.7c-0.9,7.2-5.9,12.4-14.8,12.4c-10.2,0-16-8.1-16-18.2s5.8-18,16-18c7.8,0,13.2,4,14.5,10.9h-2.1
			c-1.5-6.4-6.4-9.1-12.4-9.1c-8.4,0-13.9,6.5-13.9,16.2c0,9.7,5.5,16.3,13.9,16.3c7.3,0,11.9-4.1,12.8-10.6H242.9z"/>
		<path class="st7" d="M253.6,46.8h0.1c2.1-3.5,6.1-6.8,12.8-6.8c7.1,0,11.2,4.3,11.2,10.5v25h-2.1V50.7c0-5.9-3.6-8.8-9.4-8.8
			c-7.2,0-12.6,4.9-12.6,10.2v23.4h-2.1V27.2h2.1V46.8z"/>
		<path class="st7" d="M287.2,39.2h3.8l17,25.4c1.9,2.7,3.7,6,3.7,6h0.1V39.2h3.3v36.2h-3.6l-17-25.1c-1.7-2.5-3.9-6.1-3.9-6.1h-0.1
			v31.3h-3.3V39.2z"/>
		<path class="st7" d="M323.8,39.2h3.5v33.1H347v3.1h-23.2V39.2z"/>
	</g>
</g>
</svg>
