<svg fill="#000000" xmlns="http://www.w3.org/2000/svg"  viewBox="0 0 16 16" width="64px" height="64px"><path d="M 5 2 C 4.230469 2 3.617188 2.484375 3.289063 3.125 C 2.507813 3.289063 1.808594 3.761719 1.492188 4.523438 C 0.886719 5.96875 0 8.386719 0 10.5 C 0 12.425781 1.574219 14 3.5 14 C 4.886719 14 6.082031 13.175781 6.648438 12 L 9.351563 12 C 9.917969 13.175781 11.113281 14 12.5 14 C 14.425781 14 16 12.425781 16 10.5 C 16 9.714844 15.757813 8.691406 15.453125 7.625 C 15.144531 6.554688 14.765625 5.460938 14.46875 4.640625 C 14.179688 3.855469 13.5 3.351563 12.722656 3.152344 C 12.398438 2.496094 11.78125 2 11 2 C 10.285156 2 9.722656 2.429688 9.371094 3 L 6.628906 3 C 6.277344 2.429688 5.714844 2 5 2 Z M 5 3 C 5.4375 3 5.800781 3.28125 5.9375 3.667969 L 6.054688 4 L 9.945313 4 L 10.0625 3.667969 C 10.199219 3.28125 10.5625 3 11 3 C 11.449219 3 11.816406 3.296875 11.945313 3.699219 L 12.039063 3.992188 L 12.34375 4.039063 C 12.890625 4.125 13.339844 4.46875 13.53125 4.984375 C 13.792969 5.703125 14.109375 6.636719 14.386719 7.5625 C 13.839844 7.210938 13.195313 7 12.5 7 C 11.113281 7 9.917969 7.824219 9.351563 9 L 6.648438 9 C 6.082031 7.824219 4.886719 7 3.5 7 C 2.738281 7 2.035156 7.253906 1.460938 7.671875 C 1.746094 6.628906 2.113281 5.636719 2.414063 4.910156 C 2.621094 4.410156 3.085938 4.085938 3.632813 4.027344 L 3.953125 3.992188 L 4.054688 3.6875 C 4.1875 3.289063 4.554688 3 5 3 Z M 3.5 8 C 4.886719 8 6 9.113281 6 10.5 C 6 11.886719 4.886719 13 3.5 13 C 2.113281 13 1 11.886719 1 10.5 C 1 9.113281 2.113281 8 3.5 8 Z M 12.5 8 C 13.886719 8 15 9.113281 15 10.5 C 15 11.886719 13.886719 13 12.5 13 C 11.113281 13 10 11.886719 10 10.5 C 10 9.113281 11.113281 8 12.5 8 Z M 6.949219 10 L 9.050781 10 C 9.027344 10.164063 9 10.328125 9 10.5 C 9 10.671875 9.027344 10.835938 9.050781 11 L 6.949219 11 C 6.972656 10.835938 7 10.671875 7 10.5 C 7 10.328125 6.972656 10.164063 6.949219 10 Z"/></svg>